<svg width="582" height="142" viewBox="0 0 582 142" fill="none" xmlns="http://www.w3.org/2000/svg">
<path d="M4.54999 105.8L52.86 3.96997" stroke="#662483" stroke-width="10" stroke-miterlimit="10"/>
<path d="M46.4 5.53003L151.8 53.72" stroke="#662483" stroke-width="10" stroke-miterlimit="10"/>
<path d="M63.55 50.4299L138.02 83.7999" stroke="#662483" stroke-width="10" stroke-miterlimit="10"/>
<path d="M2.59 99.4L40.62 116.78" stroke="#662483" stroke-width="10" stroke-miterlimit="10"/>
<path d="M35.3 116.46L68.36 47.09" stroke="#662483" stroke-width="10" stroke-miterlimit="10"/>
<path d="M131.82 86.33L147.15 51.86" stroke="#662483" stroke-width="10" stroke-miterlimit="10"/>
<path d="M11.56 125.79L59.87 23.96" stroke="#E6007E" stroke-width="10" stroke-miterlimit="10"/>
<path d="M53.41 25.52L158.8 73.7" stroke="#E6007E" stroke-width="10" stroke-miterlimit="10"/>
<path d="M70.56 70.42L145.03 103.79" stroke="#E6007E" stroke-width="10" stroke-miterlimit="10"/>
<path d="M9.60001 119.38L47.63 136.77" stroke="#E6007E" stroke-width="10" stroke-miterlimit="10"/>
<path d="M42.31 136.44L75.37 67.0701" stroke="#E6007E" stroke-width="10" stroke-miterlimit="10"/>
<path d="M138.83 106.32L154.16 71.84" stroke="#E6007E" stroke-width="10" stroke-miterlimit="10"/>
<path d="M212.03 73.1494C210.742 72.1611 208.885 71.667 206.459 71.667C203.315 71.667 200.679 73.1494 198.553 76.1143C196.457 79.0791 195.408 83.1221 195.408 88.2432V111.692H188.041V65.6924H195.408V75.1709H195.588C196.636 71.9365 198.238 69.4209 200.395 67.624C202.551 65.7972 204.962 64.8838 207.627 64.8838C209.544 64.8838 211.011 65.0934 212.03 65.5127V73.1494ZM257.221 111.692H249.854V104.415H249.674C246.619 109.985 241.888 112.771 235.479 112.771C224.518 112.771 219.037 106.242 219.037 93.1846V65.6924H226.36V92.0166C226.36 101.72 230.073 106.571 237.5 106.571C241.094 106.571 244.044 105.254 246.35 102.618C248.686 99.9528 249.854 96.4788 249.854 92.1963V65.6924H257.221V111.692ZM269.35 110.03V102.124C273.363 105.089 277.78 106.571 282.602 106.571C289.071 106.571 292.305 104.415 292.305 100.103C292.305 98.8747 292.02 97.8415 291.451 97.0029C290.912 96.1344 290.164 95.3708 289.205 94.7119C288.277 94.0531 287.169 93.4691 285.881 92.96C284.623 92.4209 283.261 91.8669 281.793 91.2979C279.757 90.4893 277.96 89.6807 276.403 88.8721C274.875 88.0335 273.587 87.1051 272.539 86.0869C271.521 85.0387 270.742 83.8558 270.203 82.5381C269.694 81.2204 269.44 79.6781 269.44 77.9111C269.44 75.7549 269.934 73.8532 270.922 72.2061C271.91 70.529 273.228 69.1364 274.875 68.0283C276.522 66.8903 278.394 66.0368 280.49 65.4678C282.617 64.8988 284.803 64.6143 287.049 64.6143C291.032 64.6143 294.596 65.3031 297.74 66.6807V74.1377C294.356 71.9215 290.463 70.8135 286.061 70.8135C284.683 70.8135 283.44 70.9782 282.332 71.3076C281.224 71.6071 280.266 72.0413 279.457 72.6104C278.679 73.1794 278.065 73.8682 277.615 74.6768C277.196 75.4554 276.987 76.3239 276.987 77.2822C276.987 78.4801 277.196 79.4834 277.615 80.292C278.065 81.1006 278.709 81.8193 279.547 82.4482C280.386 83.0771 281.404 83.6462 282.602 84.1553C283.8 84.6644 285.162 85.2184 286.69 85.8174C288.726 86.596 290.553 87.4046 292.17 88.2432C293.787 89.0518 295.165 89.9801 296.303 91.0283C297.441 92.0465 298.309 93.2295 298.908 94.5771C299.537 95.9248 299.852 97.527 299.852 99.3838C299.852 101.66 299.343 103.636 298.324 105.313C297.336 106.991 296.003 108.383 294.326 109.491C292.649 110.599 290.718 111.423 288.531 111.962C286.345 112.501 284.054 112.771 281.658 112.771C276.927 112.771 272.824 111.857 269.35 110.03ZM349.401 111.692H342.033V85.1885C342.033 75.6051 338.47 70.8135 331.342 70.8135C327.748 70.8135 324.724 72.2061 322.268 74.9912C319.812 77.7464 318.584 81.2952 318.584 85.6377V111.692H311.217V43.5908H318.584V73.3291H318.764C322.298 67.5192 327.329 64.6143 333.858 64.6143C344.22 64.6143 349.401 70.8584 349.401 83.3467V111.692ZM364.315 111.692V47.2744H382.643C388.213 47.2744 392.63 48.637 395.895 51.3623C399.159 54.0876 400.791 57.6364 400.791 62.0088C400.791 65.6624 399.803 68.8369 397.826 71.5322C395.85 74.2275 393.125 76.1442 389.651 77.2822V77.4619C393.993 77.971 397.467 79.6182 400.072 82.4033C402.678 85.1585 403.981 88.7523 403.981 93.1846C403.981 98.695 402.004 103.157 398.051 106.571C394.098 109.985 389.112 111.692 383.092 111.692H364.315ZM371.862 54.1025V74.9014H379.588C383.721 74.9014 386.97 73.9131 389.336 71.9365C391.702 69.93 392.885 67.1149 392.885 63.4912C392.885 57.2321 388.767 54.1025 380.531 54.1025H371.862ZM371.862 81.6846V104.864H382.104C386.536 104.864 389.965 103.816 392.391 101.72C394.847 99.6234 396.074 96.7484 396.074 93.0947C396.074 85.488 390.893 81.6846 380.531 81.6846H371.862ZM448.992 111.692H441.625V104.505H441.446C438.241 110.015 433.524 112.771 427.295 112.771C422.713 112.771 419.119 111.558 416.514 109.132C413.938 106.706 412.651 103.487 412.651 99.4736C412.651 90.8786 417.712 85.8773 427.834 84.4697L441.625 82.5381C441.625 74.7217 438.466 70.8135 432.147 70.8135C426.606 70.8135 421.605 72.7002 417.143 76.4736V68.9268C421.665 66.0518 426.876 64.6143 432.776 64.6143C443.587 64.6143 448.992 70.3343 448.992 81.7744V111.692ZM441.625 88.4229L430.53 89.9502C427.115 90.4294 424.54 91.2829 422.803 92.5107C421.066 93.7087 420.197 95.8499 420.197 98.9346C420.197 101.181 420.991 103.022 422.578 104.46C424.196 105.868 426.337 106.571 429.002 106.571C432.656 106.571 435.666 105.299 438.031 102.753C440.427 100.177 441.625 96.9281 441.625 93.0049V88.4229ZM501.057 111.692H493.69V85.458C493.69 75.695 490.126 70.8135 482.998 70.8135C479.315 70.8135 476.26 72.2061 473.834 74.9912C471.438 77.7464 470.24 81.2354 470.24 85.458V111.692H462.873V65.6924H470.24V73.3291H470.42C473.894 67.5192 478.925 64.6143 485.514 64.6143C490.545 64.6143 494.393 66.2464 497.059 69.5107C499.724 72.7451 501.057 77.432 501.057 83.5713V111.692ZM553.166 111.692H542.834L522.53 89.5908H522.35V111.692H514.983V43.5908H522.35V86.7607H522.53L541.846 65.6924H551.504L530.166 87.8838L553.166 111.692Z" fill="#D60B52"/>
</svg>
